# xmcd CD database file
# Generated: Fri Jan 24 11:35:05 2003 by KSCD
# 
# Track frame offsets:
#       150
#       6675
#       29775
#       52800
#       67980
#       85596
#       102104
#
# Disc length: 1673 seconds
#
# Revision: 1
# Processed by: cddbd v1.4PL0 Copyright (c) Steve Scherf et al.
# Submitted via: Kscd 1.3.3
#
DISCID=52068707
DTITLE=Prol-Tung - The smoke where you lie
DYEAR=1900
DGENRE=
TTITLE0=It was the leaking roof
TTITLE1=The night we won the war
TTITLE2=Mother Dear
TTITLE3=I'm a whale
TTITLE4=Empty glasses
TTITLE5=Throw it all over me
TTITLE6=Stunning man
EXTD=Real Aussie band
EXTT0=
EXTT1=
EXTT2=
EXTT3=
EXTT4=
EXTT5=
EXTT6=
PLAYORDER=
